<?xml version="1.0" standalone="no"?>
<svg viewBox="0 0 200 200" xmlns="http://www.w3.org/2000/svg">
  <path fill="#FF0066" d="M39.5,-56.2C53.4,-52.6,68.2,-45.3,74.9,-33.4C81.6,-21.5,80.2,-5.1,74.4,8.1C68.5,21.4,58.1,31.4,47.8,39.1C37.5,46.9,27.3,52.4,16.2,55.9C5.2,59.4,-6.5,60.8,-21.5,61.7C-36.5,62.6,-54.7,62.9,-60.2,53.7C-65.7,44.6,-58.4,26,-61,8.7C-63.6,-8.6,-76.1,-24.5,-74.7,-36.8C-73.3,-49.2,-58.1,-57.9,-43.3,-61C-28.5,-64.1,-14.3,-61.7,-0.7,-60.6C12.8,-59.6,25.7,-59.8,39.5,-56.2Z" transform="translate(100 100)" />
</svg>
